<svg width="50" height="50" viewBox="0 0 50 50" fill="none" xmlns="http://www.w3.org/2000/svg">
<path d="M25 50C38.8071 50 50 38.8071 50 25C50 11.1929 38.8071 0 25 0C11.1929 0 0 11.1929 0 25C0 38.8071 11.1929 50 25 50Z" fill="#25D366"/>
<path fill-rule="evenodd" clip-rule="evenodd" d="M25.8241 38.909H25.8179C23.3299 38.9081 20.8853 38.2839 18.7139 37.0995L10.8334 39.1667L12.9423 31.4635C11.6414 29.209 10.9569 26.6516 10.958 24.0316C10.9613 15.8352 17.6301 9.16675 25.8239 9.16675C29.8007 9.16846 33.5332 10.7166 36.3398 13.5266C39.1465 16.3364 40.6913 20.0713 40.6898 24.0433C40.6865 32.2379 34.0203 38.9056 25.8241 38.909ZM19.0791 34.4083L19.5303 34.6761C21.4273 35.8018 23.6019 36.3975 25.8191 36.3984H25.8241C32.6343 36.3984 38.177 30.8554 38.1798 24.0425C38.1811 20.7409 36.8971 17.6366 34.5643 15.3011C32.2315 12.9656 29.1292 11.6788 25.8289 11.6776C19.0135 11.6776 13.4706 17.22 13.4679 24.0324C13.467 26.3671 14.1202 28.6408 15.3571 30.608L15.6508 31.0755L14.4026 35.635L19.0791 34.4083ZM32.8046 27.2439C33.0637 27.3691 33.2386 27.4536 33.3133 27.5783C33.4062 27.7332 33.4062 28.4769 33.0968 29.3447C32.7871 30.2123 31.3032 31.0042 30.5895 31.1108C29.9496 31.2065 29.1398 31.2464 28.25 30.9636C27.7105 30.7925 27.0187 30.5639 26.1324 30.1812C22.6502 28.6776 20.297 25.3026 19.8522 24.6647C19.821 24.62 19.7992 24.5888 19.7871 24.5725L19.7841 24.5685C19.5875 24.3062 18.2704 22.5489 18.2704 20.7301C18.2704 19.0191 19.1108 18.1223 19.4977 17.7095C19.5242 17.6812 19.5486 17.6552 19.5704 17.6313C19.9109 17.2595 20.3133 17.1665 20.5609 17.1665C20.8085 17.1665 21.0564 17.1688 21.2728 17.1796C21.2995 17.181 21.3273 17.1808 21.356 17.1807C21.5725 17.1794 21.8423 17.1778 22.1086 17.8173C22.211 18.0634 22.3609 18.4282 22.5189 18.8131C22.8385 19.5912 23.1917 20.4509 23.2538 20.5753C23.3467 20.7612 23.4086 20.9781 23.2848 21.2261C23.2662 21.2633 23.249 21.2984 23.2326 21.3319C23.1396 21.5217 23.0712 21.6614 22.9133 21.8457C22.8513 21.9181 22.7871 21.9963 22.723 22.0744C22.5952 22.23 22.4674 22.3856 22.3561 22.4965C22.1702 22.6817 21.9766 22.8826 22.1933 23.2545C22.41 23.6264 23.1554 24.8427 24.2597 25.8277C25.4467 26.8864 26.4783 27.3339 27.0013 27.5608C27.1034 27.605 27.1861 27.6409 27.2468 27.6713C27.6181 27.8573 27.8348 27.8262 28.0515 27.5783C28.2682 27.3304 28.98 26.4937 29.2276 26.1219C29.4752 25.7501 29.7229 25.8121 30.0633 25.936C30.4039 26.06 32.23 26.9585 32.6015 27.1444C32.674 27.1808 32.7418 27.2135 32.8046 27.2439Z" fill="#FDFDFD"/>
</svg>
